<svg id="Capa_1" data-name="Capa 1" xmlns="http://www.w3.org/2000/svg" viewBox="0 0 348.1 188.49"><defs><style>.cls-1,.cls-5{fill:#f5f4f5;}.cls-2{fill:#f2f2f2;}.cls-3,.cls-4,.cls-7{fill:none;stroke-miterlimit:10;}.cls-3,.cls-4{stroke:#f2f2f2;}.cls-3{stroke-width:0.25px;}.cls-4{stroke-width:0.5px;}.cls-5{isolation:isolate;opacity:0.1;}.cls-6{fill:#fff;}.cls-7{stroke:#fff;}</style></defs><path class="cls-1" d="M221.8,132.7a7.79,7.79,0,0,1-2.1.4H93v.2H257.2v-.6Z" transform="translate(-0.1)"/><path class="cls-1" d="M15.4,11.1H207.2V117.3h7a7.72,7.72,0,0,0,.2-1.5V7a.9.9,0,0,0-.1-.5H179.1V5.9h35a5.25,5.25,0,0,0-5.2-4.2H129.4V0h-36V1.6H13.6A5.38,5.38,0,0,0,8.2,7h0V115.9a7.72,7.72,0,0,0,.2,1.5h7Zm95.7-6.8a2,2,0,1,1-2,2A2,2,0,0,1,111.1,4.3Z" transform="translate(-0.1)"/><rect class="cls-1" x="155.8" y="69.5" width="17.9" height="3.7"/><rect class="cls-1" x="134.1" y="40.3" width="61.2" height="1.6"/><rect class="cls-1" x="134.1" y="45.4" width="61.2" height="1.6"/><rect class="cls-1" x="134.1" y="50.5" width="61.2" height="1.6"/><rect class="cls-1" x="134.1" y="55.6" width="61.2" height="1.6"/><rect class="cls-1" x="134.1" y="60.7" width="61.2" height="1.6"/><rect class="cls-2" x="187.89" y="13.33" width="7.5" height="7.5" transform="translate(43.95 140.51) rotate(-45)"/><rect class="cls-3" x="189.74" y="13.1" width="7.5" height="7.5" transform="translate(44.66 141.75) rotate(-45)"/><path class="cls-1" d="M221.8,132.7a6.37,6.37,0,0,0,4.3-6.1v-2.9a6.44,6.44,0,0,0-6.4-6.4H201V116a.32.32,0,0,0-.3-.3h-6.4a.32.32,0,0,0-.3.3v1.4h-4V116a.32.32,0,0,0-.3-.3h-6.4a.32.32,0,0,0-.3.3v1.4h-4V116a.32.32,0,0,0-.3-.3h-6.4a.32.32,0,0,0-.3.3h0v1.4h-4V116a.32.32,0,0,0-.3-.3h-6.4a.32.32,0,0,0-.3.3v1.4h-4V116a.32.32,0,0,0-.3-.3h-6.4a.32.32,0,0,0-.3.3v1.4h-4V116a.32.32,0,0,0-.3-.3h-6.4a.32.32,0,0,0-.3.3v1.4h-4V116a.32.32,0,0,0-.3-.3H84.8a.32.32,0,0,0-.3.3v1.4h-4V116a.32.32,0,0,0-.3-.3H73.8a.32.32,0,0,0-.3.3v1.4h-4V116a.32.32,0,0,0-.3-.3H62.8a.32.32,0,0,0-.3.3v1.4h-4V116a.32.32,0,0,0-.3-.3H51.8a.32.32,0,0,0-.3.3v1.4h-4V116a.32.32,0,0,0-.3-.3H40.8a.32.32,0,0,0-.3.3v1.4h-4V116a.32.32,0,0,0-.3-.3H30a.32.32,0,0,0-.3.3v1.4h-4V116a.32.32,0,0,0-.3-.3H19a.32.32,0,0,0-.3.3v1.4H6.5a6.44,6.44,0,0,0-6.4,6.4v2.9a6.44,6.44,0,0,0,6.4,6.4H219.8A4.48,4.48,0,0,0,221.8,132.7Z" transform="translate(-0.1)"/><polygon class="cls-1" points="179 6.5 214.2 6.5 257 6.5 257 5.9 214.1 5.9 179 5.9 179 6.5"/><polygon class="cls-1" points="335 167.2 335.3 167.6 335 167.9 348.1 167.9 348.1 167.2 335 167.2"/><path class="cls-1" d="M323.6,167.3H314a11,11,0,0,1-3.1.4H268.7a15.46,15.46,0,0,1-3.1-.4H154l.2.2-.4.4H323.5l-.3-.3Z" transform="translate(-0.1)"/><polygon class="cls-1" points="142.3 167.2 124 167.2 124 167.9 142.5 167.9 142.1 167.5 142.3 167.2"/><polygon class="cls-1" points="153.9 167.2 148.1 161.4 142.3 167.2 142.1 167.5 142.5 167.9 148.1 173.5 153.8 167.9 154.2 167.5 153.9 167.2"/><polygon class="cls-1" points="266.2 5.9 260.4 0.1 254.6 5.9 254.4 6.2 254.7 6.6 260.4 12.2 266.1 6.6 266.5 6.2 266.2 5.9"/><polygon class="cls-1" points="335 167.2 329.3 161.5 323.5 167.2 323.2 167.6 323.5 167.9 329.3 173.6 335 167.9 335.3 167.6 335 167.2"/><path class="cls-1" d="M268.7,167.7h42.2a11.5,11.5,0,0,0,11.5-11.5h0V81h.7V66.8h-.7V46.9a11.5,11.5,0,0,0-11.5-11.5H268.7a11.5,11.5,0,0,0-11.5,11.5h0V156.2A11.44,11.44,0,0,0,268.7,167.7Zm-6.9-6.2a7.14,7.14,0,0,1-.8-1.5c-.1-.3-.2-.5-.3-.8a7.46,7.46,0,0,1-.4-2.6h0V47.6a8.6,8.6,0,0,1,8.6-8.6H274a4,4,0,0,0,2.2,5.3,4.15,4.15,0,0,0,1.6.3H302a4.06,4.06,0,0,0,4.1-4.1,3.65,3.65,0,0,0-.3-1.5h5.5a8.6,8.6,0,0,1,8.6,8.6h0V156.7h0a7.83,7.83,0,0,1-.4,2.6c-.1.3-.2.5-.3.8a10.93,10.93,0,0,1-.8,1.5,8.56,8.56,0,0,1-7.1,3.8H268.9a8.92,8.92,0,0,1-7.1-3.9Z" transform="translate(-0.1)"/><rect class="cls-1" x="283.7" y="110.9" width="12.6" height="3.7"/><rect class="cls-1" x="268.4" y="81.8" width="43.2" height="1.6"/><rect class="cls-1" x="268.4" y="86.9" width="43.2" height="1.6"/><rect class="cls-1" x="268.4" y="91.9" width="43.2" height="1.6"/><rect class="cls-1" x="268.4" y="97" width="43.2" height="1.6"/><rect class="cls-1" x="268.4" y="102.1" width="43.2" height="1.6"/><rect class="cls-1" x="284.13" y="60.51" width="7.5" height="7.5" transform="translate(38.78 222.39) rotate(-45)"/><rect class="cls-4" x="288.38" y="58.32" width="7.5" height="7.5" transform="translate(41.57 224.75) rotate(-45)"/><path class="cls-1" d="M260.3,156.7a7.83,7.83,0,0,0,.4,2.6A7.83,7.83,0,0,1,260.3,156.7Z" transform="translate(-0.1)"/><path class="cls-5" d="M260.3,156.7a7.83,7.83,0,0,0,.4,2.6A7.83,7.83,0,0,1,260.3,156.7Z" transform="translate(-0.1)"/><path class="cls-1" d="M319.9,156.7h0a7.83,7.83,0,0,1-.4,2.6A7.83,7.83,0,0,0,319.9,156.7Z" transform="translate(-0.1)"/><path class="cls-5" d="M319.9,156.7h0a7.83,7.83,0,0,1-.4,2.6A7.83,7.83,0,0,0,319.9,156.7Z" transform="translate(-0.1)"/><rect class="cls-6" x="90.21" y="152.76" width="29.6" height="29.6" transform="translate(-87.82 123.33) rotate(-45)"/><rect class="cls-7" x="94.93" y="151.06" width="29.6" height="29.6" transform="translate(-85.24 126.17) rotate(-45)"/><path class="cls-1" d="M58.9,87.7l-1.4-1.4-1.4-1.4-4.2-4.2-1.4-1.4L49,77.8l-1.4-1.4L46.2,75l-1.4-1.4-1.4-1.4L42,73.6,40.6,75l-1.4,1.4L35,80.6,33.4,82,32,83.4l-1.4,1.4-1.4,1.4-1.4,1.4L26.4,89,25,90.4l-1.4,1.4L25,93.2l4.2,4.2,1.4,1.4,1.4,1.4,4.2,4.2,1.4,1.4,1.4,1.4,1.4,1.4,1.4,1.4,1.4,1.4,1.4-1.4,1.4-1.4,4.2-4.2,1.4-1.4,1.4-1.4,1.4-1.4,1.4-1.4,1.4-1.4L58.6,96,60,94.6l1.4-1.4,1.4-1.4Zm0,5.7-1.4,1.4-1.4,1.4-1.4,1.4L53.2,99l-1.4,1.4-1.4,1.4L49,103.2l-1.4,1.4L46.2,106l-1.4,1.4-1.4,1.4-17-17,1.4-1.4L29.2,89l1.4-1.4L32,86.2l1.4-1.4,1.4-1.4L36.2,82l1.4-1.4L39,79.2l1.4-1.4,1.4-1.4L43.2,75,46,77.8l1.4,1.4,1.4,1.4L60.1,91.9Z" transform="translate(-0.1)"/><polygon class="cls-1" points="29 91.9 30.5 90.5 34.7 86.3 36.1 84.9 37.5 83.4 39 82 40.4 80.6 41.8 79.2 43.2 77.8 44.6 79.2 46 80.6 34.7 91.9 36.1 93.4 37.5 94.8 40.4 91.9 41.8 90.5 43.2 89.1 44.6 87.7 46 86.3 47.5 84.9 48.9 86.3 50.3 87.7 47.5 90.5 46 91.9 44.6 93.4 43.2 94.8 41.8 96.2 40.4 97.6 41.8 99 43.2 100.4 47.5 96.2 48.9 94.8 50.3 93.4 54.5 89.1 56 90.5 57.4 91.9 53.1 96.2 51.7 97.6 50.3 99 48.9 100.4 47.5 101.9 46 103.3 44.6 104.7 43.2 106.1 36.1 99 34.7 97.6 33.3 96.2 31.9 94.8 30.5 93.4 29 91.9"/><path class="cls-1" d="M301.2,142l-1-1-1-1-3-3-1-1-1-1-1-1-1-1-1-1-1-1-1,1-1,1-1,1-3,3-1,1-1,1-1,1-1,1-1,1-1,1-1,1-1,1,1,1,3,3,1,1,1,1,3,3,1,1,1,1,1,1,1,1,1,1,1-1,1-1,3-3,1-1,1-1,1-1,1-1,1-1,1-1,1-1,1-1,1-1Zm0,4-1,1-1,1-1,1-1,1-1,1-1,1-1,1-1,1-1,1-1,1-1,1L278,145l1-1,1-1,1-1,1-1,1-1,1-1,1-1,1-1,1-1,1-1,1-1,1-1,2,2,1,1,1,1,8.1,8.1Z" transform="translate(-0.1)"/><polygon class="cls-1" points="279.9 145 280.9 144 283.9 141 285 139.9 286 138.9 287 137.9 288 136.9 289 135.9 290 134.9 291 135.9 292 136.9 283.9 145 285 146 286 147 288 145 289 144 290 143 291 142 292 141 293 139.9 294.1 141 295.1 142 293 144 292 145 291 146 290 147 289 148 288 149.1 289 150.1 290 151.1 293 148 294.1 147 295.1 146 298.1 143 299.1 144 300.1 145 297.1 148 296.1 149.1 295.1 150.1 294.1 151.1 293 152.1 292 153.1 291 154.1 290 155.1 285 150.1 283.9 149.1 282.9 148 281.9 147 280.9 146 279.9 145"/></svg>