<?xml version="1.0" encoding="utf-8"?>
<!-- Generator: Adobe Illustrator 26.0.0, SVG Export Plug-In . SVG Version: 6.00 Build 0)  -->
<svg version="1.1" id="Capa_1" xmlns="http://www.w3.org/2000/svg" xmlns:xlink="http://www.w3.org/1999/xlink" x="0px" y="0px"
	 viewBox="0 0 348.2 188.5" style="enable-background:new 0 0 348.2 188.5;" xml:space="preserve">
<style type="text/css">
	.st0{fill:#F5F4F5;}
	.st1{fill:#F5F4F5;stroke:#F2F2F2;stroke-width:0.25;stroke-miterlimit:10;}
	.st2{fill:#F5F4F5;stroke:#F2F2F2;stroke-width:0.5;stroke-miterlimit:10;}
	.st3{opacity:0.1;fill:#F5F4F5;enable-background:new    ;}
	.st4{fill:#F5F4F5;stroke:#FFFFFF;stroke-miterlimit:10;}
</style>
<path class="st0" d="M221.8,132.7c-0.7,0.2-1.4,0.4-2.1,0.4H93v0.2h164.2v-0.6H221.8z"/>
<path class="st0" d="M15.4,11.1h191.8v106.2h7c0.1-0.5,0.2-1,0.2-1.5V7c0-0.2,0-0.3-0.1-0.5h-35.2V5.9h35c-0.5-2.5-2.7-4.2-5.2-4.2
	h-79.5V0H93.4v1.6H13.6c-3,0-5.4,2.4-5.4,5.4l0,0l0,0v108.9c0,0.5,0.1,1,0.2,1.5h7L15.4,11.1z M111.1,4.3c1.1,0,2,0.9,2,2
	s-0.9,2-2,2s-2-0.9-2-2S110,4.3,111.1,4.3z"/>
<rect x="155.9" y="69.5" class="st0" width="17.9" height="3.7"/>
<rect x="134.2" y="40.3" class="st0" width="61.2" height="1.6"/>
<rect x="134.2" y="45.4" class="st0" width="61.2" height="1.6"/>
<rect x="134.2" y="50.5" class="st0" width="61.2" height="1.6"/>
<rect x="134.2" y="55.6" class="st0" width="61.2" height="1.6"/>
<rect x="134.2" y="60.7" class="st0" width="61.2" height="1.6"/>
<rect x="187.9" y="13.3" transform="matrix(0.7071 -0.7071 0.7071 0.7071 44.0656 140.5371)" class="st0" width="7.5" height="7.5"/>
<rect x="189.7" y="13.1" transform="matrix(0.7071 -0.7071 0.7071 0.7071 44.7857 141.7223)" class="st1" width="7.5" height="7.5"/>
<path class="st0" d="M221.8,132.7c2.6-0.9,4.3-3.3,4.3-6.1v-2.9c0-3.5-2.9-6.4-6.4-6.4H201V116c0-0.1-0.1-0.3-0.3-0.3h-6.4
	c-0.1,0-0.3,0.1-0.3,0.3v1.4h-4V116c0-0.1-0.1-0.3-0.3-0.3h-6.4c-0.1,0-0.3,0.1-0.3,0.3v1.4h-4V116c0-0.1-0.1-0.3-0.3-0.3h-6.4
	c-0.1,0-0.3,0.1-0.3,0.3c0,0,0,0,0,0v1.4h-4V116c0-0.1-0.1-0.3-0.3-0.3h-6.4c-0.1,0-0.3,0.1-0.3,0.3v1.4h-4V116
	c0-0.1-0.1-0.3-0.3-0.3h-6.4c-0.1,0-0.3,0.1-0.3,0.3v1.4h-4V116c0-0.1-0.1-0.3-0.3-0.3h-6.4c-0.1,0-0.3,0.1-0.3,0.3v1.4h-4V116
	c0-0.1-0.1-0.3-0.3-0.3H84.8c-0.1,0-0.3,0.1-0.3,0.3v1.4h-4V116c0-0.1-0.1-0.3-0.3-0.3h-6.4c-0.1,0-0.3,0.1-0.3,0.3v1.4h-4V116
	c0-0.1-0.1-0.3-0.3-0.3h-6.4c-0.1,0-0.3,0.1-0.3,0.3v1.4h-4V116c0-0.1-0.1-0.3-0.3-0.3h-6.4c-0.1,0-0.3,0.1-0.3,0.3v1.4h-4V116
	c0-0.1-0.1-0.3-0.3-0.3h-6.4c-0.1,0-0.3,0.1-0.3,0.3v1.4h-4V116c0-0.1-0.1-0.3-0.3-0.3H30c-0.1,0-0.3,0.1-0.3,0.3v1.4h-4V116
	c0-0.1-0.1-0.3-0.3-0.3H19c-0.1,0-0.3,0.1-0.3,0.3v1.4H6.5c-3.5,0-6.4,2.9-6.4,6.4v2.9c0,3.5,2.9,6.4,6.4,6.4c0,0,0,0,0,0h213.3
	C220.5,133.1,221.2,133,221.8,132.7z"/>
<polygon class="st0" points="179.1,6.5 214.3,6.5 257.1,6.5 257.1,5.9 214.2,5.9 179.1,5.9 "/>
<polygon class="st0" points="335.1,167.2 335.4,167.6 335.1,167.9 348.2,167.9 348.2,167.2 "/>
<path class="st0" d="M323.6,167.3H314c-1,0.3-2.1,0.4-3.1,0.4h-42.2c-1.1,0-2.1-0.2-3.1-0.4H154l0.2,0.2l-0.4,0.4h169.7l-0.3-0.3
	L323.6,167.3z"/>
<polygon class="st0" points="142.4,167.2 124.1,167.2 124.1,167.9 142.6,167.9 142.2,167.5 "/>
<polygon class="st0" points="154,167.2 148.2,161.4 142.4,167.2 142.2,167.5 142.6,167.9 148.2,173.5 153.9,167.9 154.3,167.5 "/>
<polygon class="st0" points="266.3,5.9 260.5,0.1 254.7,5.9 254.5,6.2 254.8,6.6 260.5,12.2 266.2,6.6 266.6,6.2 "/>
<polygon class="st0" points="335.1,167.2 329.4,161.5 323.6,167.2 323.3,167.6 323.6,167.9 329.4,173.6 335.1,167.9 335.4,167.6 "/>
<path class="st0" d="M268.7,167.7h42.2c6.4,0,11.5-5.2,11.5-11.5l0,0V81h0.7V66.8h-0.7V46.9c0-6.4-5.2-11.5-11.5-11.5h-42.2
	c-6.4,0-11.5,5.2-11.5,11.5l0,0v109.3C257.1,162.5,262.3,167.7,268.7,167.7z M261.8,161.5c-0.3-0.5-0.6-0.9-0.8-1.5
	c-0.1-0.3-0.2-0.5-0.3-0.8c-0.3-0.8-0.4-1.7-0.4-2.6l0,0V47.6c0-4.7,3.8-8.6,8.6-8.6c0,0,0,0,0,0h5.1c-0.9,2.1,0.1,4.5,2.2,5.3
	c0.5,0.2,1,0.3,1.6,0.3H302c2.3,0,4.1-1.8,4.1-4.1c0-0.5-0.1-1.1-0.3-1.5h5.5c4.7,0,8.6,3.8,8.6,8.6c0,0,0,0,0,0v109.1l0,0
	c0,0.9-0.1,1.7-0.4,2.6c-0.1,0.3-0.2,0.5-0.3,0.8c-0.2,0.5-0.5,1-0.8,1.5c-1.6,2.4-4.3,3.8-7.1,3.8h-42.4
	C266.1,165.3,263.4,163.9,261.8,161.5L261.8,161.5z"/>
<rect x="283.8" y="110.9" class="st0" width="12.6" height="3.7"/>
<rect x="268.5" y="81.8" class="st0" width="43.2" height="1.6"/>
<rect x="268.5" y="86.9" class="st0" width="43.2" height="1.6"/>
<rect x="268.5" y="91.9" class="st0" width="43.2" height="1.6"/>
<rect x="268.5" y="97" class="st0" width="43.2" height="1.6"/>
<rect x="268.5" y="102.1" class="st0" width="43.2" height="1.6"/>
<rect x="284.1" y="60.5" transform="matrix(0.7071 -0.7071 0.7071 0.7071 38.9113 222.3723)" class="st0" width="7.5" height="7.5"/>
<rect x="288.4" y="58.3" transform="matrix(0.7071 -0.7071 0.7071 0.7071 41.6717 224.7772)" class="st2" width="7.5" height="7.5"/>
<path class="st0" d="M260.3,156.7c0,0.9,0.1,1.7,0.4,2.6C260.4,158.4,260.3,157.6,260.3,156.7z"/>
<path class="st3" d="M260.3,156.7c0,0.9,0.1,1.7,0.4,2.6C260.4,158.4,260.3,157.6,260.3,156.7z"/>
<path class="st0" d="M319.9,156.7L319.9,156.7c0,0.9-0.1,1.7-0.4,2.6C319.8,158.4,319.9,157.6,319.9,156.7z"/>
<path class="st3" d="M319.9,156.7L319.9,156.7c0,0.9-0.1,1.7-0.4,2.6C319.8,158.4,319.9,157.6,319.9,156.7z"/>
<rect x="90.2" y="152.8" transform="matrix(0.7071 -0.7071 0.7071 0.7071 -87.7421 123.2908)" class="st0" width="29.6" height="29.6"/>
<rect x="94.9" y="151.1" transform="matrix(0.7071 -0.7071 0.7071 0.7071 -85.1433 126.1174)" class="st4" width="29.6" height="29.6"/>
<g>
	<path class="st0" d="M58.9,87.7l-1.4-1.4l-1.4-1.4l-4.2-4.2l-1.4-1.4L49,77.8l-1.4-1.4l-1.4-1.4l-1.4-1.4l-1.4-1.4l-1.4,1.4
		l-1.4,1.4l-1.4,1.4l-4.2,4.2L33.4,82L32,83.4l-1.4,1.4l-1.4,1.4l-1.4,1.4l-1.4,1.4l-1.4,1.4l-1.4,1.4l1.4,1.4l4.2,4.2l1.4,1.4
		l1.4,1.4l4.2,4.2l1.4,1.4l1.4,1.4l1.4,1.4l1.4,1.4l1.4,1.4l1.4-1.4l1.4-1.4l4.2-4.2l1.4-1.4l1.4-1.4l1.4-1.4l1.4-1.4l1.4-1.4
		l1.4-1.4l1.4-1.4l1.4-1.4l1.4-1.4L58.9,87.7z M58.9,93.4l-1.4,1.4l-1.4,1.4l-1.4,1.4L53.2,99l-1.4,1.4l-1.4,1.4l-1.4,1.4l-1.4,1.4
		l-1.4,1.4l-1.4,1.4l-1.4,1.4l-17-17l1.4-1.4l1.4-1.4l1.4-1.4l1.4-1.4l1.4-1.4l1.4-1.4l1.4-1.4l1.4-1.4l1.4-1.4l1.4-1.4l1.4-1.4
		l1.4-1.4l2.8,2.8l1.4,1.4l1.4,1.4l11.3,11.3L58.9,93.4z"/>
	<polygon class="st0" points="29.1,91.9 30.6,90.5 34.8,86.3 36.2,84.9 37.6,83.4 39.1,82 40.5,80.6 41.9,79.2 43.3,77.8 44.7,79.2 
		46.1,80.6 34.8,91.9 36.2,93.4 37.6,94.8 40.5,91.9 41.9,90.5 43.3,89.1 44.7,87.7 46.1,86.3 47.6,84.9 49,86.3 50.4,87.7 
		47.6,90.5 46.1,91.9 44.7,93.4 43.3,94.8 41.9,96.2 40.5,97.6 41.9,99 43.3,100.4 47.6,96.2 49,94.8 50.4,93.4 54.6,89.1 
		56.1,90.5 57.5,91.9 53.2,96.2 51.8,97.6 50.4,99 49,100.4 47.6,101.9 46.1,103.3 44.7,104.7 43.3,106.1 36.2,99 34.8,97.6 
		33.4,96.2 32,94.8 30.6,93.4 	"/>
</g>
<g>
	<path class="st0" d="M301.2,142l-1-1l-1-1l-3-3l-1-1l-1-1l-1-1l-1-1l-1-1l-1-1l-1,1l-1,1l-1,1l-3,3l-1,1l-1,1l-1,1l-1,1l-1,1l-1,1
		l-1,1l-1,1l1,1l3,3l1,1l1,1l3,3l1,1l1,1l1,1l1,1l1,1l1-1l1-1l3-3l1-1l1-1l1-1l1-1l1-1l1-1l1-1l1-1l1-1L301.2,142z M301.2,146l-1,1
		l-1,1l-1,1l-1,1l-1,1l-1,1l-1,1l-1,1l-1,1l-1,1l-1,1L278,145l1-1l1-1l1-1l1-1l1-1l1-1l1-1l1-1l1-1l1-1l1-1l1-1l2,2l1,1l1,1l8.1,8.1
		L301.2,146z"/>
	<polygon class="st0" points="280,145 281,144 284,141 285.1,139.9 286.1,138.9 287.1,137.9 288.1,136.9 289.1,135.9 290.1,134.9 
		291.1,135.9 292.1,136.9 284,145 285.1,146 286.1,147 288.1,145 289.1,144 290.1,143 291.1,142 292.1,141 293.1,139.9 294.2,141 
		295.2,142 293.1,144 292.1,145 291.1,146 290.1,147 289.1,148 288.1,149.1 289.1,150.1 290.1,151.1 293.1,148 294.2,147 295.2,146 
		298.2,143 299.2,144 300.2,145 297.2,148 296.2,149.1 295.2,150.1 294.2,151.1 293.1,152.1 292.1,153.1 291.1,154.1 290.1,155.1 
		285.1,150.1 284,149.1 283,148 282,147 281,146 	"/>
</g>
</svg>
