<svg id="Capa_1" data-name="Capa 1" xmlns="http://www.w3.org/2000/svg" viewBox="0 0 348.16 188.47"><defs><style>.cls-1{fill:#fff;}.cls-2{fill:#f2f2f2;}.cls-3,.cls-4,.cls-6,.cls-7{fill:none;stroke-miterlimit:10;}.cls-3,.cls-4,.cls-7{stroke:#f2f2f2;}.cls-3{stroke-width:0.25px;}.cls-4{stroke-width:0.5px;}.cls-5{fill:#010101;isolation:isolate;opacity:0.1;}.cls-6{stroke:#fff;}</style></defs><path class="cls-1" d="M318.64,284.19a6.28,6.28,0,0,1-2.09.36H189.77v.25H353.93v-.61Z" transform="translate(-96.8 -151.47)"/><path class="cls-1" d="M112.21,162.62H304v106.2h7a5.42,5.42,0,0,0,.23-1.45V158.49a4.35,4.35,0,0,0-.06-.52H276v-.61H311a5.37,5.37,0,0,0-5.25-4.25H226.27v-1.64H190.22v1.64H110.38a5.38,5.38,0,0,0-5.38,5.38h0V267.37a5.41,5.41,0,0,0,.22,1.45h7Zm95.71-6.89a2,2,0,1,1-2,2A2,2,0,0,1,207.92,155.73Z" transform="translate(-96.8 -151.47)"/><rect class="cls-1" x="155.85" y="69.48" width="17.91" height="3.74"/><rect class="cls-1" x="134.2" y="40.34" width="61.22" height="1.6"/><rect class="cls-1" x="134.2" y="45.42" width="61.22" height="1.6"/><rect class="cls-1" x="134.2" y="50.5" width="61.22" height="1.6"/><rect class="cls-1" x="134.2" y="55.58" width="61.22" height="1.6"/><rect class="cls-1" x="134.2" y="60.66" width="61.22" height="1.6"/><rect class="cls-2" x="284.74" y="164.81" width="7.49" height="7.49" transform="translate(-131.5 101.88) rotate(-45)"/><rect class="cls-3" x="286.52" y="164.53" width="7.49" height="7.49" transform="translate(-130.77 103.06) rotate(-45)"/><path class="cls-1" d="M318.64,284.19a6.41,6.41,0,0,0,4.33-6.06v-2.9a6.42,6.42,0,0,0-6.42-6.41H297.84v-1.35a.27.27,0,0,0-.27-.27h-6.42a.27.27,0,0,0-.26.27v1.35h-4v-1.35a.27.27,0,0,0-.27-.27h-6.42a.27.27,0,0,0-.26.27v1.35h-4v-1.35a.27.27,0,0,0-.27-.27h-6.42a.26.26,0,0,0-.26.27v1.35h-4v-1.35a.27.27,0,0,0-.27-.27h-6.42a.27.27,0,0,0-.27.27v1.35h-4v-1.35a.27.27,0,0,0-.26-.27h-6.42a.27.27,0,0,0-.27.27v1.35h-4v-1.35a.27.27,0,0,0-.26-.27h-6.42a.27.27,0,0,0-.27.27v1.35h-4v-1.35a.27.27,0,0,0-.26-.27H181.55a.27.27,0,0,0-.27.27v1.35h-4v-1.35a.27.27,0,0,0-.27-.27h-6.41a.27.27,0,0,0-.27.27v1.35h-4v-1.35a.27.27,0,0,0-.27-.27h-6.41a.27.27,0,0,0-.27.27v1.35h-4v-1.35a.27.27,0,0,0-.27-.27h-6.41a.27.27,0,0,0-.27.27v1.35h-4v-1.35a.27.27,0,0,0-.27-.27h-6.41a.27.27,0,0,0-.27.27v1.35h-4v-1.35a.27.27,0,0,0-.27-.27h-6.41a.27.27,0,0,0-.27.27v1.35h-4v-1.35a.27.27,0,0,0-.27-.27h-6.42a.27.27,0,0,0-.26.27v1.35h-12.3a6.42,6.42,0,0,0-6.42,6.41v2.9a6.42,6.42,0,0,0,6.42,6.42H316.55A6.28,6.28,0,0,0,318.64,284.19Z" transform="translate(-96.8 -151.47)"/><polygon class="cls-1" points="179.15 6.5 214.31 6.5 257.08 6.5 257.08 5.88 214.24 5.88 179.15 5.88 179.15 6.5"/><polygon class="cls-1" points="335.11 167.25 335.42 167.56 335.11 167.87 348.16 167.87 348.16 167.25 335.11 167.25"/><path class="cls-1" d="M420.43,318.73h-9.65a11.54,11.54,0,0,1-3.13.44H365.46a11.62,11.62,0,0,1-3.14-.44H250.84l.24.24-.37.37H420.43l-.31-.31Z" transform="translate(-96.8 -151.47)"/><polygon class="cls-1" points="142.42 167.25 124.14 167.25 124.14 167.87 142.55 167.87 142.18 167.49 142.42 167.25"/><polygon class="cls-1" points="154.04 167.25 148.23 161.44 142.42 167.25 142.18 167.49 142.55 167.87 148.23 173.54 153.91 167.87 154.28 167.49 154.04 167.25"/><polygon class="cls-1" points="266.33 5.95 260.52 0.14 254.71 5.95 254.47 6.19 254.84 6.56 260.52 12.24 266.2 6.56 266.57 6.19 266.33 5.95"/><polygon class="cls-1" points="335.11 167.25 329.37 161.51 323.62 167.25 323.31 167.56 323.62 167.87 329.37 173.61 335.11 167.87 335.42 167.56 335.11 167.25"/><path class="cls-1" d="M365.46,319.17h42.19a11.55,11.55,0,0,0,11.52-11.53h0V232.48h.73V218.3h-.73V198.39a11.53,11.53,0,0,0-11.52-11.53H365.46a11.53,11.53,0,0,0-11.53,11.53h0V307.64a11.55,11.55,0,0,0,11.53,11.53Zm-6.88-6.2a7.6,7.6,0,0,1-.79-1.46,7.47,7.47,0,0,1-.29-.79,8.67,8.67,0,0,1-.39-2.56h0V199.07a8.6,8.6,0,0,1,8.61-8.61h5.14a4.08,4.08,0,0,0,3.79,5.63h24.17a4.09,4.09,0,0,0,3.79-5.63h5.5a8.6,8.6,0,0,1,8.61,8.61V308.16h0a8.67,8.67,0,0,1-.39,2.56,7.47,7.47,0,0,1-.29.79,7.6,7.6,0,0,1-.79,1.46,8.61,8.61,0,0,1-7.14,3.8H365.72A8.61,8.61,0,0,1,358.58,313Z" transform="translate(-96.8 -151.47)"/><rect class="cls-1" x="283.8" y="110.92" width="12.63" height="3.74"/><rect class="cls-1" x="268.53" y="81.78" width="43.17" height="1.6"/><rect class="cls-1" x="268.53" y="86.86" width="43.17" height="1.6"/><rect class="cls-1" x="268.53" y="91.94" width="43.17" height="1.6"/><rect class="cls-1" x="268.53" y="97.02" width="43.17" height="1.6"/><rect class="cls-1" x="268.53" y="102.1" width="43.17" height="1.6"/><rect class="cls-2" x="380.94" y="211.95" width="7.49" height="7.49" transform="translate(-136.65 183.71) rotate(-45)"/><rect class="cls-4" x="385.22" y="209.81" width="7.49" height="7.49" transform="translate(-133.88 186.12) rotate(-45)"/><path class="cls-1" d="M357.11,308.16a8.67,8.67,0,0,0,.39,2.56,8.67,8.67,0,0,1-.39-2.56Z" transform="translate(-96.8 -151.47)"/><path class="cls-5" d="M357.11,308.16a8.67,8.67,0,0,0,.39,2.56,8.67,8.67,0,0,1-.39-2.56Z" transform="translate(-96.8 -151.47)"/><path class="cls-1" d="M416.72,308.16h0a8.67,8.67,0,0,1-.39,2.56A8.67,8.67,0,0,0,416.72,308.16Z" transform="translate(-96.8 -151.47)"/><path class="cls-5" d="M416.72,308.16h0a8.67,8.67,0,0,1-.39,2.56A8.67,8.67,0,0,0,416.72,308.16Z" transform="translate(-96.8 -151.47)"/><rect class="cls-1" x="186.97" y="304.25" width="29.57" height="29.57" transform="translate(-263.3 84.63) rotate(-45)"/><rect class="cls-6" x="191.69" y="302.53" width="29.57" height="29.57" transform="translate(-260.71 87.46) rotate(-45)"/><rect class="cls-6" x="135.54" y="225.65" width="29.57" height="29.57" transform="translate(-222.79 25.25) rotate(-45)"/><rect class="cls-2" x="368.14" y="290.63" width="18.62" height="18.62" transform="translate(-198.34 203.27) rotate(-45)"/><rect class="cls-7" x="373.07" y="287.53" width="18.62" height="18.62" transform="translate(-194.7 205.85) rotate(-45)"/><polygon class="cls-1" points="42.86 90.24 40.31 92.78 45.41 97.88 47.95 95.33 53.05 90.24 58.15 85.14 53.05 80.04 47.95 85.14 42.86 90.24"/><polygon class="cls-1" points="37.76 105.52 40.31 108.07 45.41 113.17 50.51 108.07 55.6 102.98 60.7 97.88 65.79 92.78 60.7 87.69 55.6 92.78 50.51 97.88 45.41 102.98 42.86 100.43 37.76 95.33 35.21 92.78 45.41 82.59 50.51 77.5 45.41 72.4 40.31 77.5 35.21 82.59 30.12 87.69 25.02 92.78 32.67 100.43 37.76 105.52"/></svg>