<svg id="Capa_1" data-name="Capa 1" xmlns="http://www.w3.org/2000/svg" viewBox="0 0 348.1 188.53"><defs><style>.cls-1,.cls-5{fill:#f5f4f5;}.cls-2{fill:#f2f2f2;}.cls-3,.cls-4,.cls-7{fill:none;stroke-miterlimit:10;}.cls-3,.cls-4{stroke:#f2f2f2;}.cls-3{stroke-width:0.25px;}.cls-4{stroke-width:0.5px;}.cls-5{isolation:isolate;opacity:0.1;}.cls-6{fill:#fff;}.cls-7{stroke:#fff;}</style></defs><path class="cls-1" d="M221.75,132.69a7.79,7.79,0,0,1-2.1.4H93v.2h164.2v-.6Z" transform="translate(-0.05 0.01)"/><path class="cls-1" d="M15.35,11.09h191.8v106.2h7a7.72,7.72,0,0,0,.2-1.5V7a.9.9,0,0,0-.1-.5h-35.2v-.6h35a5.25,5.25,0,0,0-5.2-4.2h-79.5V0h-36v1.6H13.55A5.38,5.38,0,0,0,8.15,7h0v108.9a7.72,7.72,0,0,0,.2,1.5h7Zm95.7-6.8a2,2,0,1,1-2,2A2,2,0,0,1,111.05,4.29Z" transform="translate(-0.05 0.01)"/><rect class="cls-1" x="155.8" y="69.5" width="17.9" height="3.7"/><rect class="cls-1" x="134.1" y="40.3" width="61.2" height="1.6"/><rect class="cls-1" x="134.1" y="45.4" width="61.2" height="1.6"/><rect class="cls-1" x="134.1" y="50.5" width="61.2" height="1.6"/><rect class="cls-1" x="134.1" y="55.6" width="61.2" height="1.6"/><rect class="cls-1" x="134.1" y="60.7" width="61.2" height="1.6"/><rect class="cls-2" x="187.83" y="13.29" width="7.5" height="7.5" transform="translate(44.01 140.47) rotate(-45)"/><rect class="cls-3" x="189.66" y="13.12" width="7.5" height="7.5" transform="translate(44.67 141.72) rotate(-45)"/><path class="cls-1" d="M221.75,132.69a6.37,6.37,0,0,0,4.3-6.1v-2.9a6.44,6.44,0,0,0-6.4-6.4H201V116a.32.32,0,0,0-.3-.3h-6.4a.32.32,0,0,0-.3.3v1.4h-4V116a.32.32,0,0,0-.3-.3h-6.4a.32.32,0,0,0-.3.3v1.4h-4V116a.32.32,0,0,0-.3-.3h-6.4a.32.32,0,0,0-.3.3h0v1.4h-4V116a.32.32,0,0,0-.3-.3h-6.4a.32.32,0,0,0-.3.3v1.4h-4V116a.32.32,0,0,0-.3-.3h-6.4a.32.32,0,0,0-.3.3v1.4h-4V116a.32.32,0,0,0-.3-.3h-6.4a.32.32,0,0,0-.3.3v1.4h-4V116a.32.32,0,0,0-.3-.3H84.75a.32.32,0,0,0-.3.3v1.4h-4V116a.32.32,0,0,0-.3-.3h-6.4a.32.32,0,0,0-.3.3v1.4h-4V116a.32.32,0,0,0-.3-.3h-6.4a.32.32,0,0,0-.3.3v1.4h-4V116a.32.32,0,0,0-.3-.3h-6.4a.32.32,0,0,0-.3.3v1.4h-4V116a.32.32,0,0,0-.3-.3h-6.4a.32.32,0,0,0-.3.3v1.4h-4V116a.32.32,0,0,0-.3-.3H30a.32.32,0,0,0-.3.3v1.4h-4V116a.32.32,0,0,0-.3-.3H19a.32.32,0,0,0-.3.3v1.4H6.45a6.44,6.44,0,0,0-6.4,6.4v2.9a6.44,6.44,0,0,0,6.4,6.4h213.3A4.48,4.48,0,0,0,221.75,132.69Z" transform="translate(-0.05 0.01)"/><polygon class="cls-1" points="179 6.5 214.2 6.5 257 6.5 257 5.9 214.1 5.9 179 5.9 179 6.5"/><polygon class="cls-1" points="335 167.2 335.3 167.6 335 167.9 348.1 167.9 348.1 167.2 335 167.2"/><path class="cls-1" d="M323.55,167.29H314a11,11,0,0,1-3.1.4h-42.2a15.46,15.46,0,0,1-3.1-.4H154l.2.2-.4.4h169.7l-.3-.3Z" transform="translate(-0.05 0.01)"/><polygon class="cls-1" points="142.3 167.2 124 167.2 124 167.9 142.5 167.9 142.1 167.5 142.3 167.2"/><polygon class="cls-1" points="153.9 167.2 148.1 161.4 142.3 167.2 142.1 167.5 142.5 167.9 148.1 173.5 153.8 167.9 154.2 167.5 153.9 167.2"/><polygon class="cls-1" points="266.2 5.9 260.4 0.1 254.6 5.9 254.4 6.2 254.7 6.6 260.4 12.2 266.1 6.6 266.5 6.2 266.2 5.9"/><polygon class="cls-1" points="335 167.2 329.3 161.5 323.5 167.2 323.2 167.6 323.5 167.9 329.3 173.6 335 167.9 335.3 167.6 335 167.2"/><path class="cls-1" d="M268.65,167.69h42.2a11.5,11.5,0,0,0,11.5-11.5h0V81h.7V66.79h-.7V46.89a11.5,11.5,0,0,0-11.5-11.5h-42.2a11.5,11.5,0,0,0-11.5,11.5h0v109.3A11.44,11.44,0,0,0,268.65,167.69Zm-6.9-6.2a7.14,7.14,0,0,1-.8-1.5c-.1-.3-.2-.5-.3-.8a7.46,7.46,0,0,1-.4-2.6h0v-109a8.6,8.6,0,0,1,8.6-8.6H274a4,4,0,0,0,2.2,5.3,4.15,4.15,0,0,0,1.6.3H302a4.06,4.06,0,0,0,4.1-4.1,3.65,3.65,0,0,0-.3-1.5h5.5a8.6,8.6,0,0,1,8.6,8.6h0v109.1h0a7.83,7.83,0,0,1-.4,2.6c-.1.3-.2.5-.3.8a10.93,10.93,0,0,1-.8,1.5,8.56,8.56,0,0,1-7.1,3.8h-42.4a8.92,8.92,0,0,1-7.1-3.9Z" transform="translate(-0.05 0.01)"/><rect class="cls-1" x="283.7" y="110.9" width="12.6" height="3.7"/><rect class="cls-1" x="268.4" y="81.8" width="43.2" height="1.6"/><rect class="cls-1" x="268.4" y="86.9" width="43.2" height="1.6"/><rect class="cls-1" x="268.4" y="91.9" width="43.2" height="1.6"/><rect class="cls-1" x="268.4" y="97" width="43.2" height="1.6"/><rect class="cls-1" x="268.4" y="102.1" width="43.2" height="1.6"/><rect class="cls-1" x="284.05" y="60.51" width="7.5" height="7.5" transform="translate(38.8 222.34) rotate(-45)"/><rect class="cls-4" x="288.32" y="58.28" width="7.5" height="7.5" transform="translate(41.64 224.71) rotate(-45)"/><path class="cls-1" d="M260.25,156.69a7.83,7.83,0,0,0,.4,2.6A7.83,7.83,0,0,1,260.25,156.69Z" transform="translate(-0.05 0.01)"/><path class="cls-5" d="M260.25,156.69a7.83,7.83,0,0,0,.4,2.6A7.83,7.83,0,0,1,260.25,156.69Z" transform="translate(-0.05 0.01)"/><path class="cls-1" d="M319.85,156.69h0a7.83,7.83,0,0,1-.4,2.6A7.83,7.83,0,0,0,319.85,156.69Z" transform="translate(-0.05 0.01)"/><path class="cls-5" d="M319.85,156.69h0a7.83,7.83,0,0,1-.4,2.6A7.83,7.83,0,0,0,319.85,156.69Z" transform="translate(-0.05 0.01)"/><rect class="cls-6" x="90.18" y="152.78" width="29.6" height="29.6" transform="translate(-87.8 123.33) rotate(-45)"/><rect class="cls-7" x="94.89" y="151.1" width="29.6" height="29.6" transform="translate(-85.23 126.16) rotate(-45)"/><path class="cls-6" d="M40.36,74.06A17.83,17.83,0,1,0,58.19,91.89,17.83,17.83,0,0,0,40.36,74.06Zm0,32.47L25.71,91.89,40.36,77.24l2.93,2.93L31.57,91.89l2.93,2.93L43.29,86,46.22,89l-8.79,8.79,2.93,2.92L52.08,89,55,91.89Z" transform="translate(-0.05 0.01)"/><path class="cls-6" d="M290,132.76A12.23,12.23,0,1,0,302.23,145,12.24,12.24,0,0,0,290,132.76ZM290,155l-10-10,10-10.05,2,2-8,8,2,2,6-6,2,2-6,6,2,2,8-8,2,2Z" transform="translate(-0.05 0.01)"/></svg>